<svg xmlns="http://www.w3.org/2000/svg" width="300" height="200" viewBox="0 0 300 200"><defs><linearGradient id="s" x1="0" y1="0" x2="0" y2="1"><stop offset="0" stop-color="#4a98f0"/><stop offset="1" stop-color="#d6ecff"/></linearGradient></defs><rect width="300" height="200" fill="url(#s)"/><ellipse cx="60" cy="40" rx="34" ry="10" fill="#fff" opacity=".8"/><ellipse cx="230" cy="62" rx="40" ry="11" fill="#fff" opacity=".7"/><rect y="176" width="300" height="24" fill="#4e6b4a"/><path d="M30 104 L220 94 Q272 96 282 112 Q272 130 220 132 L58 134 Q32 126 30 104 Z" fill="#f4f6f8"/><path d="M38 106 L22 44 L52 44 L102 100 Z" fill="#8a3fd1"/><path d="M46 112 L18 124 L68 124 Z" fill="#cfd6dc"/><path d="M140 128 L84 162 L116 164 L196 130 Z" fill="#aab4bd"/><ellipse cx="146" cy="146" rx="15" ry="8" fill="#8f9aa5"/><ellipse cx="174" cy="140" rx="15" ry="8" fill="#7d8893"/><rect x="46" y="118" width="212" height="5" fill="#8a3fd1"/><circle cx="80.0" cy="108" r="2.2" fill="#2a3641"/><circle cx="89.5" cy="108" r="2.2" fill="#2a3641"/><circle cx="99.0" cy="108" r="2.2" fill="#2a3641"/><circle cx="108.5" cy="108" r="2.2" fill="#2a3641"/><circle cx="118.0" cy="108" r="2.2" fill="#2a3641"/><circle cx="127.5" cy="108" r="2.2" fill="#2a3641"/><circle cx="137.0" cy="108" r="2.2" fill="#2a3641"/><circle cx="146.5" cy="108" r="2.2" fill="#2a3641"/><circle cx="156.0" cy="108" r="2.2" fill="#2a3641"/><circle cx="165.5" cy="108" r="2.2" fill="#2a3641"/><circle cx="175.0" cy="108" r="2.2" fill="#2a3641"/><circle cx="184.5" cy="108" r="2.2" fill="#2a3641"/><circle cx="194.0" cy="108" r="2.2" fill="#2a3641"/><circle cx="203.5" cy="108" r="2.2" fill="#2a3641"/><circle cx="213.0" cy="108" r="2.2" fill="#2a3641"/><circle cx="222.5" cy="108" r="2.2" fill="#2a3641"/><circle cx="232.0" cy="108" r="2.2" fill="#2a3641"/><path d="M254 100 L272 106 L274 112 L256 110 Z" fill="#26323d"/></svg>